<mxfile host="app.diagrams.net" agent="Mozilla/5.0 (Windows NT 10.0; Win64; x64) AppleWebKit/537.36 (KHTML, like Gecko) Chrome/127.0.0.0 Safari/537.36" version="24.7.7">
  <diagram name="Página-1" id="oZ7Gsg2yPIm77miEetJb">
    <mxGraphModel dx="2534" dy="500" grid="1" gridSize="10" guides="1" tooltips="1" connect="1" arrows="1" fold="1" page="1" pageScale="1" pageWidth="827" pageHeight="1169" math="0" shadow="0">
      <root>
        <mxCell id="0" />
        <mxCell id="1" parent="0" />
        <mxCell id="xca-dB9qPjCTGvozeR4q-1" value="personajes" style="rounded=0;whiteSpace=wrap;html=1;fillColor=#e1d5e7;strokeColor=#9673a6;" parent="1" vertex="1">
          <mxGeometry x="40" y="30" width="60" height="20" as="geometry" />
        </mxCell>
        <mxCell id="xca-dB9qPjCTGvozeR4q-3" value="trio tchaikovsky" style="rounded=0;whiteSpace=wrap;html=1;fillColor=#dab6ed;strokeColor=#D685D6;" parent="1" vertex="1">
          <mxGeometry x="260" y="100" width="90" height="20" as="geometry" />
        </mxCell>
        <mxCell id="xca-dB9qPjCTGvozeR4q-7" value="Personaje" style="swimlane;childLayout=stackLayout;horizontal=1;startSize=50;horizontalStack=0;rounded=1;fontSize=14;fontStyle=0;strokeWidth=2;resizeParent=0;resizeLast=1;shadow=0;dashed=0;align=center;arcSize=4;whiteSpace=wrap;html=1;" parent="1" vertex="1">
          <mxGeometry x="600" y="10" width="160" height="140" as="geometry" />
        </mxCell>
        <mxCell id="xca-dB9qPjCTGvozeR4q-8" value="- Nombre real&lt;br&gt;- Nombre magico&lt;div&gt;- Palabras clave&lt;/div&gt;&lt;div&gt;- Poderes&lt;/div&gt;&lt;div&gt;- Contexto&lt;/div&gt;" style="align=left;strokeColor=none;fillColor=none;spacingLeft=4;fontSize=12;verticalAlign=top;resizable=0;rotatable=0;part=1;html=1;" parent="xca-dB9qPjCTGvozeR4q-7" vertex="1">
          <mxGeometry y="50" width="160" height="90" as="geometry" />
        </mxCell>
        <mxCell id="xca-dB9qPjCTGvozeR4q-9" value="-greta Hoffman&lt;div&gt;-Nutckraker&lt;/div&gt;" style="rounded=0;whiteSpace=wrap;html=1;fillColor=#DAB6ED;strokeColor=#9673a6;" parent="1" vertex="1">
          <mxGeometry x="800" y="230" width="90" height="80" as="geometry" />
        </mxCell>
        <mxCell id="xca-dB9qPjCTGvozeR4q-10" value="-&lt;div&gt;-Swan Lake&lt;/div&gt;" style="rounded=0;whiteSpace=wrap;html=1;fillColor=#DAB6ED;strokeColor=#9673a6;" parent="1" vertex="1">
          <mxGeometry x="550" y="230" width="90" height="80" as="geometry" />
        </mxCell>
        <mxCell id="xca-dB9qPjCTGvozeR4q-11" value="-Katalina&lt;div&gt;&lt;span style=&quot;background-color: initial;&quot;&gt;-1812 overture&lt;/span&gt;&lt;/div&gt;&lt;div&gt;&lt;span style=&quot;background-color: initial;&quot;&gt;victoria sobre francia&lt;/span&gt;&lt;/div&gt;" style="rounded=0;whiteSpace=wrap;html=1;fillColor=#DAB6ED;strokeColor=#9673a6;" parent="1" vertex="1">
          <mxGeometry x="219" y="230" width="90" height="80" as="geometry" />
        </mxCell>
        <mxCell id="xca-dB9qPjCTGvozeR4q-12" value="" style="endArrow=classic;html=1;rounded=0;" parent="1" source="xca-dB9qPjCTGvozeR4q-3" target="xca-dB9qPjCTGvozeR4q-9" edge="1">
          <mxGeometry width="50" height="50" relative="1" as="geometry">
            <mxPoint x="250" y="200" as="sourcePoint" />
            <mxPoint x="300" y="150" as="targetPoint" />
          </mxGeometry>
        </mxCell>
        <mxCell id="xca-dB9qPjCTGvozeR4q-13" value="" style="endArrow=classic;html=1;rounded=0;" parent="1" source="xca-dB9qPjCTGvozeR4q-3" target="xca-dB9qPjCTGvozeR4q-10" edge="1">
          <mxGeometry width="50" height="50" relative="1" as="geometry">
            <mxPoint x="328" y="130" as="sourcePoint" />
            <mxPoint x="360" y="155" as="targetPoint" />
          </mxGeometry>
        </mxCell>
        <mxCell id="xca-dB9qPjCTGvozeR4q-14" value="" style="endArrow=classic;html=1;rounded=0;" parent="1" source="xca-dB9qPjCTGvozeR4q-3" target="xca-dB9qPjCTGvozeR4q-11" edge="1">
          <mxGeometry width="50" height="50" relative="1" as="geometry">
            <mxPoint x="312" y="130" as="sourcePoint" />
            <mxPoint x="306" y="150" as="targetPoint" />
          </mxGeometry>
        </mxCell>
        <mxCell id="xca-dB9qPjCTGvozeR4q-15" value="Bowie" style="rounded=0;whiteSpace=wrap;html=1;fillColor=#dae8fc;strokeColor=#6c8ebf;" parent="1" vertex="1">
          <mxGeometry x="-110" y="100" width="90" height="20" as="geometry" />
        </mxCell>
        <mxCell id="xca-dB9qPjCTGvozeR4q-17" value="-Mayor Tom&lt;div&gt;&lt;span style=&quot;background-color: initial;&quot;&gt;-Space oddity&lt;/span&gt;&lt;/div&gt;&lt;div&gt;&lt;span style=&quot;background-color: initial;&quot;&gt;-&lt;/span&gt;&lt;/div&gt;&lt;div&gt;&lt;span style=&quot;background-color: initial;&quot;&gt;-control de la gravedad, aceleración del tiempo&amp;nbsp;&lt;/span&gt;&lt;/div&gt;" style="rounded=0;whiteSpace=wrap;html=1;fillColor=#dae8fc;strokeColor=#6c8ebf;" parent="1" vertex="1">
          <mxGeometry x="-115" y="200.25" width="170" height="99" as="geometry" />
        </mxCell>
        <mxCell id="xca-dB9qPjCTGvozeR4q-18" value="-&lt;div&gt;&lt;span style=&quot;background-color: initial;&quot;&gt;-Lady stardust&lt;/span&gt;&lt;/div&gt;" style="rounded=0;whiteSpace=wrap;html=1;fillColor=#dae8fc;strokeColor=#6c8ebf;" parent="1" vertex="1">
          <mxGeometry x="-950" y="204.75" width="90" height="80" as="geometry" />
        </mxCell>
        <mxCell id="xca-dB9qPjCTGvozeR4q-19" value="-&lt;div&gt;&lt;span style=&quot;background-color: initial;&quot;&gt;-Ziggy stardust&lt;/span&gt;&lt;/div&gt;" style="rounded=0;whiteSpace=wrap;html=1;fillColor=#dae8fc;strokeColor=#6c8ebf;" parent="1" vertex="1">
          <mxGeometry x="-690" y="209" width="90" height="80" as="geometry" />
        </mxCell>
        <mxCell id="xca-dB9qPjCTGvozeR4q-20" value="-Ana&lt;div&gt;&lt;span style=&quot;background-color: initial;&quot;&gt;-Starwoman&lt;/span&gt;&lt;/div&gt;" style="rounded=0;whiteSpace=wrap;html=1;fillColor=#dae8fc;strokeColor=#6c8ebf;" parent="1" vertex="1">
          <mxGeometry x="-1190" y="204.75" width="90" height="80" as="geometry" />
        </mxCell>
        <mxCell id="xca-dB9qPjCTGvozeR4q-21" value="-Lienn De Gaulle&lt;div&gt;&lt;span style=&quot;background-color: initial;&quot;&gt;-Life on mars?&lt;/span&gt;&lt;/div&gt;&lt;div&gt;&lt;span style=&quot;background-color: initial;&quot;&gt;-Nihlismo, absurdismo&lt;/span&gt;&lt;/div&gt;&lt;div&gt;&lt;span style=&quot;background-color: initial;&quot;&gt;-Alteración de la realidad en pequeña escala&lt;/span&gt;&lt;/div&gt;" style="rounded=0;whiteSpace=wrap;html=1;fillColor=#dae8fc;strokeColor=#6c8ebf;" parent="1" vertex="1">
          <mxGeometry x="-480" y="199.5" width="200" height="100.5" as="geometry" />
        </mxCell>
        <mxCell id="xca-dB9qPjCTGvozeR4q-22" value="" style="endArrow=classic;html=1;rounded=0;" parent="1" source="xca-dB9qPjCTGvozeR4q-1" target="xca-dB9qPjCTGvozeR4q-3" edge="1">
          <mxGeometry width="50" height="50" relative="1" as="geometry">
            <mxPoint x="325" y="130" as="sourcePoint" />
            <mxPoint x="375" y="180" as="targetPoint" />
          </mxGeometry>
        </mxCell>
        <mxCell id="xca-dB9qPjCTGvozeR4q-23" value="" style="endArrow=classic;html=1;rounded=0;" parent="1" source="xca-dB9qPjCTGvozeR4q-1" target="xca-dB9qPjCTGvozeR4q-15" edge="1">
          <mxGeometry width="50" height="50" relative="1" as="geometry">
            <mxPoint x="335" y="140" as="sourcePoint" />
            <mxPoint x="385" y="190" as="targetPoint" />
          </mxGeometry>
        </mxCell>
        <mxCell id="xca-dB9qPjCTGvozeR4q-24" value="" style="endArrow=classic;html=1;rounded=0;" parent="1" source="xca-dB9qPjCTGvozeR4q-15" target="xca-dB9qPjCTGvozeR4q-17" edge="1">
          <mxGeometry width="50" height="50" relative="1" as="geometry">
            <mxPoint x="59" y="60" as="sourcePoint" />
            <mxPoint x="-44" y="110" as="targetPoint" />
          </mxGeometry>
        </mxCell>
        <mxCell id="xca-dB9qPjCTGvozeR4q-25" value="" style="endArrow=classic;html=1;rounded=0;entryX=1;entryY=0;entryDx=0;entryDy=0;" parent="1" source="xca-dB9qPjCTGvozeR4q-15" target="xca-dB9qPjCTGvozeR4q-18" edge="1">
          <mxGeometry width="50" height="50" relative="1" as="geometry">
            <mxPoint x="-53" y="130" as="sourcePoint" />
            <mxPoint x="10" y="183" as="targetPoint" />
          </mxGeometry>
        </mxCell>
        <mxCell id="xca-dB9qPjCTGvozeR4q-26" value="" style="endArrow=classic;html=1;rounded=0;entryX=1;entryY=0;entryDx=0;entryDy=0;" parent="1" source="xca-dB9qPjCTGvozeR4q-15" target="xca-dB9qPjCTGvozeR4q-19" edge="1">
          <mxGeometry width="50" height="50" relative="1" as="geometry">
            <mxPoint x="-43" y="140" as="sourcePoint" />
            <mxPoint x="20" y="193" as="targetPoint" />
          </mxGeometry>
        </mxCell>
        <mxCell id="xca-dB9qPjCTGvozeR4q-27" value="" style="endArrow=classic;html=1;rounded=0;entryX=1;entryY=0;entryDx=0;entryDy=0;" parent="1" source="xca-dB9qPjCTGvozeR4q-15" target="xca-dB9qPjCTGvozeR4q-20" edge="1">
          <mxGeometry width="50" height="50" relative="1" as="geometry">
            <mxPoint x="-73" y="130" as="sourcePoint" />
            <mxPoint x="-113" y="180" as="targetPoint" />
          </mxGeometry>
        </mxCell>
        <mxCell id="xca-dB9qPjCTGvozeR4q-28" value="" style="endArrow=classic;html=1;rounded=0;" parent="1" source="xca-dB9qPjCTGvozeR4q-15" target="xca-dB9qPjCTGvozeR4q-21" edge="1">
          <mxGeometry width="50" height="50" relative="1" as="geometry">
            <mxPoint x="-83" y="130" as="sourcePoint" />
            <mxPoint x="-200" y="195" as="targetPoint" />
          </mxGeometry>
        </mxCell>
        <mxCell id="xca-dB9qPjCTGvozeR4q-29" value="Líder de Constellatio. 14 años. Nacida en 1936, su infancia fue marcada por la guerra, la devastación y la ausencia de padres. Obtuvo sus poderes a partir un asedio a su ciudad, gracias a ella se pudo repeler el ataque enemigo. La devastación la llevaron a un aislamiento de su realidad sobreviviendo hasta nuestros días. Sus ideales socialistas infundidos por vivir en la unión soviética le ha hecho despreciar a los burgueses.&amp;nbsp; &amp;nbsp;&amp;nbsp;" style="rounded=0;whiteSpace=wrap;html=1;fillColor=#dae8fc;strokeColor=#6c8ebf;" parent="1" vertex="1">
          <mxGeometry x="-250" y="330" width="350" height="160" as="geometry" />
        </mxCell>
        <mxCell id="xca-dB9qPjCTGvozeR4q-34" value="1943, 7 años. Despiertan sus poderes" style="rounded=0;whiteSpace=wrap;html=1;fillColor=#dae8fc;strokeColor=#6c8ebf;" parent="1" vertex="1">
          <mxGeometry x="-250" y="510" width="120" height="60" as="geometry" />
        </mxCell>
        <mxCell id="xca-dB9qPjCTGvozeR4q-35" value="1986, 50 años. La primera estacion espacial en orbita" style="rounded=0;whiteSpace=wrap;html=1;fillColor=#dae8fc;strokeColor=#6c8ebf;" parent="1" vertex="1">
          <mxGeometry x="-110" y="510" width="120" height="60" as="geometry" />
        </mxCell>
        <mxCell id="xca-dB9qPjCTGvozeR4q-36" value="1990, 54 años. construcción de su propia estación espacial" style="rounded=0;whiteSpace=wrap;html=1;fillColor=#dae8fc;strokeColor=#6c8ebf;" parent="1" vertex="1">
          <mxGeometry x="30" y="510" width="120" height="60" as="geometry" />
        </mxCell>
        <mxCell id="xca-dB9qPjCTGvozeR4q-37" value="1994, 58 años. Afronta la realidad por primera vez." style="rounded=0;whiteSpace=wrap;html=1;fillColor=#dae8fc;strokeColor=#6c8ebf;" parent="1" vertex="1">
          <mxGeometry x="30" y="590" width="120" height="60" as="geometry" />
        </mxCell>
        <mxCell id="xca-dB9qPjCTGvozeR4q-38" value="2026, 90 años. Actualidad." style="rounded=0;whiteSpace=wrap;html=1;fillColor=#dae8fc;strokeColor=#6c8ebf;" parent="1" vertex="1">
          <mxGeometry x="-110" y="590" width="120" height="60" as="geometry" />
        </mxCell>
        <mxCell id="xca-dB9qPjCTGvozeR4q-39" value="" style="curved=1;endArrow=classic;html=1;rounded=0;" parent="1" edge="1">
          <mxGeometry width="50" height="50" relative="1" as="geometry">
            <mxPoint x="-120" y="540" as="sourcePoint" />
            <mxPoint x="-90" y="660" as="targetPoint" />
            <Array as="points">
              <mxPoint x="-60" y="470" />
              <mxPoint x="90" y="550" />
              <mxPoint x="140" y="580" />
              <mxPoint x="150" y="590" />
              <mxPoint x="170" y="610" />
              <mxPoint x="160" y="650" />
              <mxPoint x="90" y="660" />
            </Array>
          </mxGeometry>
        </mxCell>
        <mxCell id="xca-dB9qPjCTGvozeR4q-40" value="Una niña de 14 años que lleva botas altas y una gabardina sovietica vestida cómo tunica. una boina cubre gran parte de su frente y su cabello negro" style="rounded=0;whiteSpace=wrap;html=1;fillColor=#dae8fc;strokeColor=#6c8ebf;" parent="1" vertex="1">
          <mxGeometry x="-140" y="680" width="180" height="70" as="geometry" />
        </mxCell>
        <mxCell id="xca-dB9qPjCTGvozeR4q-41" value="cabello ondulado, en su mirada vacía se puede ver su alma." style="rounded=0;whiteSpace=wrap;html=1;fillColor=#dae8fc;strokeColor=#6c8ebf;" parent="1" vertex="1">
          <mxGeometry x="-480" y="680" width="180" height="70" as="geometry" />
        </mxCell>
        <mxCell id="xca-dB9qPjCTGvozeR4q-42" value="La persona en quien más confía MT. Ella lleva el cuidado del jardín de Constellatio. Su mayor ambición en la vida es morir y hacer feliz a Mayor Tom." style="rounded=0;whiteSpace=wrap;html=1;fillColor=#dae8fc;strokeColor=#6c8ebf;" parent="1" vertex="1">
          <mxGeometry x="-480" y="330" width="200" height="160" as="geometry" />
        </mxCell>
        <mxCell id="y8kFlX_KYbTW3JfM3lOp-1" value="" style="shape=flexArrow;endArrow=classic;startArrow=classic;html=1;rounded=0;entryX=0;entryY=0.5;entryDx=0;entryDy=0;" parent="1" source="xca-dB9qPjCTGvozeR4q-18" target="xca-dB9qPjCTGvozeR4q-19" edge="1">
          <mxGeometry width="100" height="100" relative="1" as="geometry">
            <mxPoint x="-850" y="480" as="sourcePoint" />
            <mxPoint x="-750" y="380" as="targetPoint" />
          </mxGeometry>
        </mxCell>
        <mxCell id="y8kFlX_KYbTW3JfM3lOp-2" value="protagonista. 17 años. Vivió una infancia rodeada de vicio, se ha sentido despreciada toda su vida por su familia, por la poca atención que le daban por ser tan &quot;buena niña&quot; y tener problemas reales que atender." style="rounded=0;whiteSpace=wrap;html=1;fillColor=#dae8fc;strokeColor=#6c8ebf;" parent="1" vertex="1">
          <mxGeometry x="-1245" y="330" width="200" height="160" as="geometry" />
        </mxCell>
        <mxCell id="y8kFlX_KYbTW3JfM3lOp-3" value="" style="shape=flexArrow;endArrow=classic;startArrow=classic;html=1;rounded=0;" parent="1" source="xca-dB9qPjCTGvozeR4q-21" target="xca-dB9qPjCTGvozeR4q-17" edge="1">
          <mxGeometry width="100" height="100" relative="1" as="geometry">
            <mxPoint x="-275" y="243.25" as="sourcePoint" />
            <mxPoint x="-105" y="246.25" as="targetPoint" />
          </mxGeometry>
        </mxCell>
        <mxCell id="y8kFlX_KYbTW3JfM3lOp-4" value="Vestimenta &quot;goth nu&quot;, porta aretes con forma de cruz y su cabello teñido de morado la hacen resaltar." style="rounded=0;whiteSpace=wrap;html=1;fillColor=#dae8fc;strokeColor=#6c8ebf;" parent="1" vertex="1">
          <mxGeometry x="-1234" y="680" width="180" height="70" as="geometry" />
        </mxCell>
        <mxCell id="y8kFlX_KYbTW3JfM3lOp-5" value="escritora pretenciosa. 19 años. Vive en una constante frustración que comparte con sus 14 seguidores (entre ellos Lady). Cree que sus obras merecen más reconocimiento que cualquier libro de autoayuda aunque la redacción deja mucho que desear." style="rounded=0;whiteSpace=wrap;html=1;fillColor=#dae8fc;strokeColor=#6c8ebf;" parent="1" vertex="1">
          <mxGeometry x="-745" y="330" width="200" height="160" as="geometry" />
        </mxCell>
        <mxCell id="y8kFlX_KYbTW3JfM3lOp-6" value="Contadora ingenua. 21 años. Lleva las finanzas de Constellatio. Desea una vida tranquila junto a alguien especial.&amp;nbsp;" style="rounded=0;whiteSpace=wrap;html=1;fillColor=#dae8fc;strokeColor=#6c8ebf;" parent="1" vertex="1">
          <mxGeometry x="-1005" y="330" width="200" height="160" as="geometry" />
        </mxCell>
        <mxCell id="y8kFlX_KYbTW3JfM3lOp-7" value="Kuv" style="rounded=0;whiteSpace=wrap;html=1;fillColor=#dae8fc;strokeColor=#6c8ebf;" parent="1" vertex="1">
          <mxGeometry x="-500" y="50" width="87" height="20" as="geometry" />
        </mxCell>
        <mxCell id="da-zcHeVTYQQkIiGvuu9-1" value="base 10" style="rounded=0;whiteSpace=wrap;html=1;fillColor=#76608a;strokeColor=#432D57;fontColor=#ffffff;" parent="1" vertex="1">
          <mxGeometry x="-717.5" y="830" width="145" height="40" as="geometry" />
        </mxCell>
        <mxCell id="da-zcHeVTYQQkIiGvuu9-2" value="base 2" style="rounded=0;whiteSpace=wrap;html=1;fillColor=#76608a;strokeColor=#432D57;fontColor=#ffffff;" parent="1" vertex="1">
          <mxGeometry x="-980" y="830" width="145" height="40" as="geometry" />
        </mxCell>
        <mxCell id="da-zcHeVTYQQkIiGvuu9-3" value="romano" style="rounded=0;whiteSpace=wrap;html=1;fillColor=#6a00ff;strokeColor=#3700CC;fontColor=#ffffff;" parent="1" vertex="1">
          <mxGeometry x="191.5" y="840" width="145" height="40" as="geometry" />
        </mxCell>
        <mxCell id="da-zcHeVTYQQkIiGvuu9-5" value="tarot" style="rounded=0;whiteSpace=wrap;html=1;fillColor=#6a00ff;strokeColor=#3700CC;fontColor=#ffffff;" parent="1" vertex="1">
          <mxGeometry x="-1222.5" y="830" width="145" height="40" as="geometry" />
        </mxCell>
        <mxCell id="da-zcHeVTYQQkIiGvuu9-6" value="palitos" style="rounded=0;whiteSpace=wrap;html=1;fillColor=#fff2cc;strokeColor=#d6b656;" parent="1" vertex="1">
          <mxGeometry x="522.5" y="830" width="145" height="40" as="geometry" />
        </mxCell>
        <mxCell id="da-zcHeVTYQQkIiGvuu9-7" value="(v,w,x,y,z)" style="rounded=0;whiteSpace=wrap;html=1;fillColor=#d5e8d4;strokeColor=#82b366;" parent="1" vertex="1">
          <mxGeometry x="-462.5" y="840" width="145" height="40" as="geometry" />
        </mxCell>
        <mxCell id="da-zcHeVTYQQkIiGvuu9-8" value="(a.b.c.d.e)" style="rounded=0;whiteSpace=wrap;html=1;fillColor=#d5e8d4;strokeColor=#82b366;" parent="1" vertex="1">
          <mxGeometry x="-122.5" y="830" width="145" height="40" as="geometry" />
        </mxCell>
        <mxCell id="da-zcHeVTYQQkIiGvuu9-9" value="------" style="rounded=0;whiteSpace=wrap;html=1;fillColor=#fff2cc;strokeColor=#d6b656;" parent="1" vertex="1">
          <mxGeometry x="760" y="830" width="145" height="40" as="geometry" />
        </mxCell>
      </root>
    </mxGraphModel>
  </diagram>
</mxfile>
